<?xml version="1.0" encoding="UTF-8"?>
<svg id="Layer_2" data-name="Layer 2" xmlns="http://www.w3.org/2000/svg" viewBox="0 0 227 81">
  <defs>
    <style>
      .cls-1 {
        font-family: Poppins-Medium, Poppins;
        font-size: 27.08px;
        font-weight: 500;
      }

      .cls-1, .cls-2 {
        fill: #fff;
      }

      .cls-3 {
        opacity: .31;
      }

      .cls-2 {
        stroke-width: 0px;
      }
    </style>
  </defs>
  <g id="android">
    <g class="cls-3">
      <rect class="cls-2" x="0" y="0" width="227" height="81" rx="40.5" ry="40.5"/>
    </g>
    <text class="cls-1" transform="translate(81.26 50.14)"><tspan x="0" y="0">Android</tspan></text>
    <g id="SVGRepo_iconCarrier" data-name="SVGRepo iconCarrier">
      <path class="cls-2" d="m66.27,32.76c-.73,0-1.42.29-1.93.8-.51.51-.8,1.21-.8,1.93v12.39c0,.73.29,1.42.8,1.93s1.21.8,1.93.8,1.42-.29,1.93-.8c.51-.51.8-1.21.8-1.93v-12.39c0-.73-.29-1.42-.8-1.93-.51-.51-1.21-.8-1.93-.8Z"/>
      <path class="cls-2" d="m31.01,32.76c-.73,0-1.42.29-1.93.8-.51.51-.8,1.21-.8,1.93v12.39c0,.73.29,1.42.8,1.93s1.21.8,1.93.8,1.42-.29,1.93-.8.8-1.21.8-1.93v-12.39c0-.73-.29-1.42-.8-1.93-.51-.51-1.21-.8-1.93-.8Z"/>
      <path class="cls-2" d="m35.72,32.76v18.62c0,.41.08.81.24,1.19.16.38.39.72.67,1.01.29.29.63.52,1.01.67.38.16.78.24,1.19.24h1.98v6.6c0,.73.29,1.42.8,1.93.51.51,1.21.8,1.93.8s1.42-.29,1.93-.8c.51-.51.8-1.21.8-1.93v-6.6h4.71v6.6c0,.73.29,1.42.8,1.93.51.51,1.21.8,1.93.8s1.42-.29,1.93-.8c.51-.51.8-1.21.8-1.93v-6.6h1.98c.83,0,1.62-.33,2.2-.91.58-.58.91-1.38.91-2.2v-18.62h-25.83Z"/>
      <path class="cls-2" d="m61.2,28.89c-.86-2.87-2.75-5.32-5.32-6.87l-.44-.26-.47-.23.52-.9,1.54-2.91c.03-.08.03-.17,0-.26-.03-.08-.08-.16-.15-.21h-.2c-.07,0-.15.02-.21.06-.07.04-.12.08-.17.15l-1.57,2.71-.49.9-.47-.2-.49-.17c-3.01-1.05-6.29-1.05-9.31,0l-.47.17-.49.2-.49-.9-1.57-2.91s-.06-.09-.11-.12c-.04-.03-.09-.06-.14-.07-.05-.01-.11-.02-.16-.01-.05,0-.11.02-.15.05-.05.03-.09.06-.12.11-.03.04-.06.09-.07.14-.01.05-.02.11-.01.16,0,.05.02.11.05.15l1.54,2.91.52.9-.47.23-.44.26c-2.58,1.55-4.47,4.03-5.29,6.92-.23.76-.35,1.54-.38,2.33h25.83c-.03-.79-.15-1.57-.35-2.33Zm-18.39-1.54c-.23,0-.46-.07-.65-.2-.19-.13-.34-.31-.43-.52-.09-.21-.11-.45-.07-.67.04-.23.16-.43.32-.6.16-.16.37-.27.6-.32s.46-.02.67.07c.21.09.39.24.52.43.13.19.2.42.2.65,0,.31-.12.6-.34.82-.22.22-.51.34-.82.34Zm11.64,0c-.23,0-.46-.07-.65-.2-.19-.13-.34-.31-.43-.52-.09-.21-.11-.45-.07-.67.04-.23.16-.43.32-.6.16-.16.37-.27.6-.32.23-.04.46-.02.67.07.21.09.39.24.52.43.13.19.2.42.2.65,0,.31-.12.6-.34.82-.22.22-.51.34-.82.34Z"/>
    </g>
  </g>
</svg>