<?xml version="1.0" encoding="UTF-8"?>
<svg id="Layer_2" data-name="Layer 2" xmlns="http://www.w3.org/2000/svg" viewBox="0 0 167 81">
  <defs>
    <style>
      .cls-1 {
        font-family: Poppins-Medium, Poppins;
        font-size: 27.08px;
        font-weight: 500;
      }

      .cls-1, .cls-2, .cls-3 {
        fill: #fff;
      }

      .cls-4 {
        opacity: .31;
      }

      .cls-2 {
        fill-rule: evenodd;
      }

      .cls-2, .cls-3 {
        stroke-width: 0px;
      }
    </style>
  </defs>
  <g id="ios">
    <g class="cls-4">
      <rect class="cls-3" y="0" width="167" height="81" rx="40.5" ry="40.5"/>
    </g>
    <g id="SVGRepo_iconCarrier" data-name="SVGRepo iconCarrier">
      <g id="Page-1">
        <g id="Dribbble-Light-Preview">
          <g id="icons">
            <path id="apple-_393939_" data-name="apple-[#393939]" class="cls-2" d="m54.29,20.98c1.59-1.85,2.67-4.42,2.37-6.98-2.3.09-5.07,1.47-6.72,3.31-1.48,1.64-2.77,4.25-2.42,6.76,2.56.19,5.18-1.25,6.77-3.09m5.74,16.24c.06,6.62,6.06,8.82,6.12,8.84-.05.15-.96,3.14-3.16,6.22-1.9,2.66-3.88,5.31-6.99,5.37-3.05.05-4.04-1.74-7.53-1.74s-4.58,1.68-7.47,1.79c-3,.11-5.29-2.88-7.2-5.53-3.92-5.43-6.92-15.34-2.89-22.02,2-3.32,5.57-5.43,9.44-5.48,2.95-.05,5.73,1.9,7.53,1.9s5.18-2.35,8.74-2c1.49.06,5.66.58,8.35,4.34-.22.13-4.98,2.79-4.93,8.32"/>
          </g>
        </g>
      </g>
    </g>
    <text class="cls-1" transform="translate(81.26 51.14)"><tspan x="0" y="0">iOS</tspan></text>
  </g>
</svg>