<?xml version="1.0" encoding="UTF-8"?>
<svg id="Layer_1" data-name="Layer 1" xmlns="http://www.w3.org/2000/svg" viewBox="0 0 626 662">
  <defs>
    <style>
      .cls-1 {
        fill: none;
        isolation: isolate;
        opacity: .85;
        stroke: #6e72fc;
        stroke-linecap: round;
        stroke-linejoin: round;
        stroke-width: 60px;
      }
    </style>
  </defs>
  <g id="Layer_3" data-name="Layer 3">
    <path class="cls-1" d="m313,173.78v408.78m0-408.78h-111.18c-16.38,0-32.09-6.63-43.68-18.42-11.58-11.79-18.09-27.79-18.09-44.47s6.51-32.68,18.09-44.47c11.58-11.79,27.29-18.42,43.68-18.42,86.47,0,111.18,125.78,111.18,125.78Zm0,0h111.18c16.38,0,32.09-6.63,43.68-18.42,11.58-11.79,18.09-27.79,18.09-44.47s-6.51-32.68-18.09-44.47c-11.59-11.79-27.3-18.42-43.68-18.42-86.47,0-111.18,125.78-111.18,125.78Zm-220.11,157.22h440.22v182.38c0,35.22,0,52.83-6.85,66.28-6.03,11.83-15.65,21.45-27.48,27.48-13.46,6.86-31.07,6.86-66.29,6.86h-238.98c-35.22,0-52.83,0-66.28-6.85-11.83-6.03-21.45-15.65-27.48-27.48-6.85-13.45-6.85-31.06-6.85-66.28v-182.39h-.01Zm-12.58,0h465.38c17.61,0,26.42,0,33.14-3.43,5.92-3.02,10.73-7.82,13.74-13.74,3.43-6.73,3.43-15.53,3.43-33.14v-56.6c0-17.61,0-26.42-3.43-33.14-3.02-5.92-7.82-10.73-13.74-13.74-6.73-3.43-15.53-3.43-33.14-3.43H80.31c-17.61,0-26.42,0-33.14,3.43-5.92,3.01-10.73,7.83-13.74,13.74-3.43,6.73-3.43,15.53-3.43,33.14v56.6c0,17.61,0,26.42,3.43,33.14,3.01,5.92,7.83,10.73,13.74,13.74,6.73,3.43,15.53,3.43,33.14,3.43Z"/>
  </g>
</svg>